HIERARCHY
ROOT joint_Root
{
	OFFSET 0.0 0.0 0.0
	CHANNELS 6 Xposition Yposition Zposition Zrotation Xrotation Yrotation 
	JOINT Hips
	{
		OFFSET -0.726466 93.3139 -2.00062
		CHANNELS 6 Xposition Yposition Zposition Zrotation Xrotation Yrotation 
		JOINT Spine
		{
			OFFSET 15.7357 0.0 0.0
			CHANNELS 6 Xposition Yposition Zposition Zrotation Xrotation Yrotation 
			JOINT Chest
			{
				OFFSET 8.98455 -0.406207 0.0
				CHANNELS 6 Xposition Yposition Zposition Zrotation Xrotation Yrotation 
				JOINT Neck
				{
					OFFSET 16.3773 0.0 0.0
					CHANNELS 6 Xposition Yposition Zposition Zrotation Xrotation Yrotation 
					JOINT Head
					{
						OFFSET 6.45672 0.0 0.0
						CHANNELS 6 Xposition Yposition Zposition Zrotation Xrotation Yrotation 
						End Site
						{
							OFFSET 0.0 0.0 0.0
						}
					}
				}
				JOINT Shoulder_L
				{
					OFFSET 12.9942 -0.242716 4.98039
					CHANNELS 6 Xposition Yposition Zposition Zrotation Xrotation Yrotation 
					JOINT UpperArm_L
					{
						OFFSET 5.34809 0.0 0.0
						CHANNELS 6 Xposition Yposition Zposition Zrotation Xrotation Yrotation 
						JOINT LowerArm_L
						{
							OFFSET 24.3286 1.87007e-05 0.0
							CHANNELS 6 Xposition Yposition Zposition Zrotation Xrotation Yrotation 
							JOINT Hand_L
							{
								OFFSET 22.2916 0.0 0.0
								CHANNELS 6 Xposition Yposition Zposition Zrotation Xrotation Yrotation 
								End Site
								{
									OFFSET 0.0 0.0 0.0
								}
							}
						}
					}
				}
				JOINT Shoulder_R
				{
					OFFSET 12.9945 -0.242716 -4.98039
					CHANNELS 6 Xposition Yposition Zposition Zrotation Xrotation Yrotation 
					JOINT UpperArm_R
					{
						OFFSET -5.34813 0.0 0.0
						CHANNELS 6 Xposition Yposition Zposition Zrotation Xrotation Yrotation 
						JOINT LowerArm_R
						{
							OFFSET -24.3289 0.000322201 0.0
							CHANNELS 6 Xposition Yposition Zposition Zrotation Xrotation Yrotation 
							JOINT Hand_R
							{
								OFFSET -22.2915 -0.000108084 0.0
								CHANNELS 6 Xposition Yposition Zposition Zrotation Xrotation Yrotation 
								End Site
								{
									OFFSET 0.0 0.0 0.0
								}
							}
						}
					}
				}
			}
		}
		JOINT UpperLeg_L
		{
			OFFSET -2.19248 -6.46944 0.0
			CHANNELS 6 Xposition Yposition Zposition Zrotation Xrotation Yrotation 
			JOINT LowerLeg_L
			{
				OFFSET 39.0811 0.0 -1.23785e-05
				CHANNELS 6 Xposition Yposition Zposition Zrotation Xrotation Yrotation 
				JOINT Foot_L
				{
					OFFSET 40.9854 0.0 -1.26872e-05
					CHANNELS 6 Xposition Yposition Zposition Zrotation Xrotation Yrotation 
					JOINT Toes_L
					{
						OFFSET 11.7543 0.0 0.0
						CHANNELS 6 Xposition Yposition Zposition Zrotation Xrotation Yrotation 
						End Site
						{
							OFFSET 0.0 0.0 0.0
						}
					}
				}
			}
		}
		JOINT UpperLeg_R
		{
			OFFSET -2.19251 6.46944 0.0
			CHANNELS 6 Xposition Yposition Zposition Zrotation Xrotation Yrotation 
			JOINT LowerLeg_R
			{
				OFFSET -39.0811 -0.00228153 -0.0401928
				CHANNELS 6 Xposition Yposition Zposition Zrotation Xrotation Yrotation 
				JOINT Foot_R
				{
					OFFSET -40.9854 0.0 0.0
					CHANNELS 6 Xposition Yposition Zposition Zrotation Xrotation Yrotation 
					JOINT Toes_R
					{
						OFFSET -11.7543 0.0 0.0
						CHANNELS 6 Xposition Yposition Zposition Zrotation Xrotation Yrotation 
						End Site
						{
							OFFSET 0.0 0.0 0.0
						}
					}
				}
			}
		}
	}
}
MOTION
Frames:	5
Frame Time:	0.0333333
0.000000 0.000000 0.000000 0.000000 0.000000 -0.000000 -0.280348 92.312000 -2.038370 87.850500 -1.948420 4.992180 15.735700 0.000005 -0.000001 84.830700 84.780800 -84.227900 8.984550 -0.406207 -0.000000 2.635520 -0.966653 1.226660 16.377300 -0.000001 -0.000001 3.838590 -2.745900 1.412720 6.456720 -0.000001 -0.000000 4.998790 -2.989320 0.148598 12.994200 -0.242716 4.980390 -89.971100 -0.093846 -72.867500 5.348090 -0.000007 -0.000001 -66.554000 43.798200 -16.236500 24.328600 0.000019 0.000005 1.093040 2.575990 -23.001100 22.291600 -0.000001 0.000005 4.304390 5.512170 -7.031520 12.994500 -0.242716 -4.980390 88.005600 6.906100 -73.848600 -5.348130 -0.000001 -0.000004 -63.352300 40.115900 -18.698800 -24.328900 0.000322 -0.000009 3.065580 9.673440 -17.683600 -22.291500 -0.000108 -0.000004 5.301700 5.375640 -2.160110 -2.192480 -6.469440 -0.000000 -175.788000 -5.456060 -2.279730 39.081100 -0.000007 -0.000012 -0.084021 0.194679 23.344400 40.985400 -0.000006 -0.000013 0.107376 2.808050 -66.297300 11.754300 -0.000000 0.000003 -0.000041 -0.000474 -16.596000 -2.192510 6.469440 -0.000001 179.652000 12.792200 -179.291000 -39.081100 -0.002282 -0.040193 -0.020546 0.067544 19.461800 -40.985400 0.000008 0.000006 3.325020 6.890620 -65.587900 -11.754300 -0.000006 -0.000006 -0.006333 -0.073834 -19.578300
0.000000 0.000000 0.000000 0.000000 0.000000 -0.000000 -0.255104 92.305500 -2.043450 87.840600 -1.950310 5.066110 15.735700 0.000005 -0.000001 84.939000 84.773300 -84.373800 8.984550 -0.406207 -0.000000 2.651870 -0.946573 1.151130 16.377300 -0.000001 -0.000001 3.835490 -2.744130 1.421180 6.456720 -0.000001 -0.000000 4.978700 -3.015770 0.182869 12.994200 -0.242716 4.980390 -89.952700 -0.153620 -72.884700 5.348090 -0.000007 -0.000001 -66.562300 43.796600 -16.318800 24.328600 0.000019 0.000005 1.049270 2.468430 -23.036900 22.291600 -0.000001 0.000005 4.314900 5.513930 -7.105260 12.994500 -0.242716 -4.980390 88.007800 6.923360 -73.903800 -5.348130 -0.000001 -0.000004 -62.519900 39.956000 -19.343800 -24.328900 0.000322 -0.000009 3.551380 10.445600 -18.901000 -22.291500 -0.000108 -0.000004 3.773520 5.372890 -2.075970 -2.192480 -6.469440 -0.000000 -175.780000 -5.470020 -2.235190 39.081100 -0.000007 -0.000012 -0.084206 0.194589 23.399900 40.985400 -0.000006 -0.000013 0.120457 2.811160 -66.323400 11.754300 -0.000000 0.000003 -0.000047 -0.000533 -16.598300 -2.192510 6.469440 -0.000001 179.643000 12.704500 -179.241000 -39.081100 -0.002282 -0.040193 -0.020205 0.066429 19.503200 -40.985400 0.000008 0.000006 3.290700 6.838030 -65.598700 -11.754300 -0.000006 -0.000006 -0.006324 -0.073755 -19.575100
0.000000 0.000000 0.000000 0.000000 0.000000 -0.000000 -0.230484 92.305900 -2.068170 87.827900 -1.964950 5.129340 15.735700 0.000005 -0.000001 84.758100 84.774100 -84.244200 8.984550 -0.406207 -0.000000 2.646970 -0.977008 1.049320 16.377300 -0.000001 -0.000001 3.807780 -2.688400 1.348180 6.456720 -0.000001 -0.000000 5.039560 -2.949900 0.300203 12.994200 -0.242716 4.980390 -89.934800 -0.211779 -72.883500 5.348090 -0.000007 -0.000001 -66.704100 43.604700 -16.188900 24.328600 0.000019 0.000005 1.037610 2.421970 -23.198500 22.291600 -0.000001 0.000005 4.308720 5.512500 -7.045680 12.994500 -0.242716 -4.980390 87.948800 7.085550 -73.809500 -5.348130 -0.000001 -0.000004 -61.203000 38.535500 -20.679800 -24.328900 0.000322 -0.000009 4.394640 11.615600 -20.893300 -22.291500 -0.000108 -0.000004 1.080020 5.364840 -1.820410 -2.192480 -6.469440 -0.000000 -175.767000 -5.511540 -2.185580 39.081100 -0.000007 -0.000012 -0.085712 0.197934 23.414200 40.985400 -0.000006 -0.000013 0.148715 2.869910 -66.324300 11.754300 -0.000000 0.000003 -0.000045 -0.000521 -16.597800 -2.192510 6.469440 -0.000001 179.652000 12.639700 -179.208000 -39.081100 -0.002282 -0.040193 -0.016664 0.056326 19.536000 -40.985400 0.000008 0.000006 3.422790 6.769760 -65.618900 -11.754300 -0.000006 -0.000006 -0.006508 -0.075381 -19.641400
0.000000 0.000000 0.000000 0.000000 0.000000 -0.000000 -0.195254 92.303600 -2.103110 87.847800 -2.129050 5.212600 15.735700 0.000005 -0.000001 84.460300 84.783900 -84.019300 8.984550 -0.406207 -0.000000 2.622000 -1.026010 0.904581 16.377300 -0.000001 -0.000001 3.854640 -2.615040 1.265150 6.456720 -0.000001 -0.000000 5.091000 -2.784060 0.343468 12.994200 -0.242716 4.980390 -89.912400 -0.284494 -72.883800 5.348090 -0.000007 -0.000001 -66.900400 43.422300 -15.976500 24.328600 0.000019 0.000005 1.041920 2.436040 -23.164400 22.291600 -0.000001 0.000005 4.295530 5.511860 -7.018930 12.994500 -0.242716 -4.980390 87.864000 7.296700 -73.634600 -5.348130 -0.000001 -0.000004 -59.525500 35.643400 -22.711000 -24.328900 0.000322 -0.000009 5.336150 12.059400 -24.092800 -22.291500 -0.000108 -0.000004 -0.781307 5.348810 -1.339710 -2.192480 -6.469440 -0.000000 -175.800000 -5.648880 -2.105970 39.081100 -0.000007 -0.000012 -0.083446 0.192596 23.425700 40.985400 -0.000006 -0.000013 0.167544 2.814360 -66.323100 11.754300 -0.000000 0.000003 -0.000047 -0.000535 -16.598300 -2.192510 6.469440 -0.000001 179.583000 12.560400 -179.186000 -39.081100 -0.002282 -0.040193 -0.020446 0.066813 19.583000 -40.985400 0.000008 0.000006 3.282610 6.862390 -65.580900 -11.754300 -0.000006 -0.000006 -0.006412 -0.074535 -19.606900
0.000000 0.000000 0.000000 0.000000 0.000000 -0.000000 -0.150364 92.302900 -2.178470 87.811100 -2.374090 5.235470 15.735700 0.000005 -0.000001 83.879200 84.813100 -83.505600 8.984550 -0.406207 -0.000000 2.552770 -1.122160 0.771313 16.377300 -0.000001 -0.000001 3.919580 -2.532270 1.182710 6.456720 -0.000001 -0.000000 5.210670 -2.613450 0.432185 12.994200 -0.242716 4.980390 -89.882700 -0.380692 -72.868600 5.348090 -0.000007 -0.000001 -67.073900 43.328800 -15.809700 24.328600 0.000019 0.000005 1.085560 2.564980 -22.947300 22.291600 -0.000001 0.000005 4.203960 5.509680 -6.928580 12.994500 -0.242716 -4.980390 87.802900 7.423580 -73.461900 -5.348130 -0.000001 -0.000004 -57.982100 31.102900 -25.341400 -24.328900 0.000322 -0.000009 5.772110 10.713600 -28.545800 -22.291500 -0.000108 -0.000004 -0.596349 5.349300 -1.356650 -2.192480 -6.469440 -0.000000 -175.793000 -5.765520 -2.143880 39.081100 -0.000007 -0.000012 -0.082941 0.190793 23.495300 40.985400 -0.000006 -0.000013 0.173215 2.677700 -66.317600 11.754300 -0.000000 0.000003 -0.000046 -0.000523 -16.597900 -2.192510 6.469440 -0.000001 179.593000 12.434600 -179.255000 -39.081100 -0.002282 -0.040193 -0.022246 0.071737 19.616500 -40.985400 0.000008 0.000006 3.213560 6.996380 -65.510800 -11.754300 -0.000006 -0.000006 -0.006280 -0.073359 -19.558900
